# xmcd
#
# Track frame offsets: 
#        183
#        20995
#        41173
#        61588
#        80813
#        99288
#        122793
#        141283
#        159765
#        177428
#        192893
#        213300
#
# Disc length: 3145 seconds
#
# Revision: 5
# Processed by: cddbd v1.5.2PL0 Copyright (c) Steve Scherf et al.
# Submitted via: ExactAudioCopy v0.99pb4
#
DISCID=a40c470c
DTITLE=Dr. John - Television
DYEAR=1994
DGENRE=Blues
TTITLE0=Television
TTITLE1=Lissen
TTITLE2=Limbo
TTITLE3=Witchy Red
TTITLE4=Shadows
TTITLE5=Shut D Fonk Up
TTITLE6=Thank You (Falletin Me Be Mice Elf Again))
TTITLE7=Spaceship Relationship
TTITLE8=Hold It
TTITLE9=Money (That's What I Want)
TTITLE10=U Lie 2 Much
TTITLE11=Same Day Service
EXTD=
EXTT0=
EXTT1=
EXTT2=
EXTT3=
EXTT4=
EXTT5=
EXTT6=
EXTT7=
EXTT8=
EXTT9=
EXTT10=
EXTT11=
PLAYORDER=
